<?xml version="1.0" standalone="no"?>
<!DOCTYPE svg PUBLIC "-//W3C//DTD SVG 20010904//EN"
 "http://www.w3.org/TR/2001/REC-SVG-20010904/DTD/svg10.dtd">
<svg version="1.0" xmlns="http://www.w3.org/2000/svg"
 width="700.000000pt" height="700.000000pt" viewBox="0 0 700.000000 700.000000"
 preserveAspectRatio="xMidYMid meet">
<metadata>
Created by potrace 1.14, written by Peter Selinger 2001-2017
</metadata>
<g transform="translate(0.000000,700.000000) scale(0.100000,-0.100000)"
fill="#000000" stroke="none">
<path d="M4362 5131 c-17 -20 -39 -45 -49 -56 -10 -11 -61 -69 -112 -130 -52
-60 -99 -114 -105 -120 -6 -5 -27 -30 -47 -55 -20 -25 -47 -57 -60 -71 -13
-14 -46 -52 -74 -84 -27 -32 -97 -113 -154 -179 -227 -264 -241 -280 -246
-274 -1 2 -40 91 -84 198 -45 107 -87 206 -93 220 -5 14 -61 147 -123 295
l-112 270 -1292 3 c-1028 2 -1292 0 -1296 -10 -2 -7 -6 -24 -9 -38 -2 -14 -10
-47 -16 -75 -6 -27 -13 -59 -16 -70 -2 -11 -13 -63 -25 -115 -11 -52 -21 -102
-22 -109 -2 -13 83 -15 613 -16 l615 -1 60 -23 c145 -57 218 -157 217 -300 -1
-286 -234 -482 -661 -556 -125 -22 -380 -38 -401 -25 -5 3 9 66 36 155 25 83
48 159 51 170 3 11 17 58 30 105 63 215 70 240 69 241 0 1 -149 2 -330 3 -322
2 -328 2 -337 -18 -8 -20 -126 -442 -154 -551 -7 -27 -43 -157 -79 -287 -36
-130 -66 -238 -66 -240 0 -7 1247 -1 1290 6 181 29 428 101 558 162 41 19 76
34 79 34 14 0 183 109 237 153 183 151 294 346 311 548 6 77 11 123 20 174 17
103 21 148 21 207 -1 36 2 64 5 62 3 -2 18 -38 33 -81 15 -43 68 -186 118
-318 49 -132 119 -319 155 -415 36 -96 73 -195 82 -220 10 -25 65 -170 122
-323 l104 -278 124 128 c68 70 173 180 235 244 61 63 208 216 327 340 119 123
242 251 274 284 31 33 149 155 260 270 112 116 232 240 268 278 l65 67 609 0
c654 0 654 0 758 -52 115 -58 168 -136 172 -253 6 -197 -107 -365 -308 -459
-109 -51 -209 -82 -324 -100 -59 -9 -111 -16 -164 -21 -61 -7 -261 -9 -265 -4
-2 2 34 151 79 332 45 180 80 329 76 330 -3 2 -134 3 -291 3 l-285 -1 -33
-110 c-19 -60 -43 -139 -54 -175 -20 -67 -37 -124 -62 -207 -31 -105 -146
-482 -164 -541 -11 -34 -17 -64 -13 -65 13 -7 1148 0 1206 7 327 41 656 154
874 300 212 142 333 306 391 533 70 275 -73 614 -330 778 -94 60 -226 116
-310 130 -14 2 -56 10 -95 16 -51 9 -317 13 -962 14 l-892 2 -29 -36z"/>
<path d="M3017 2944 c-1 -1 -108 -5 -237 -9 -129 -3 -264 -8 -300 -9 -280 -14
-349 -18 -380 -21 -19 -2 -80 -6 -135 -10 -55 -4 -116 -9 -135 -10 -134 -11
-198 -16 -220 -20 -14 -2 -54 -7 -90 -10 -36 -4 -76 -8 -90 -10 -14 -2 -54 -7
-90 -10 -36 -3 -72 -8 -80 -10 -8 -2 -40 -7 -70 -10 -30 -3 -120 -17 -200 -31
-80 -14 -154 -27 -165 -29 -95 -12 -391 -87 -505 -128 -181 -65 -299 -143
-315 -210 -41 -161 331 -318 1005 -426 183 -29 190 -30 375 -52 94 -10 186
-21 205 -24 19 -2 69 -7 110 -10 41 -3 95 -8 120 -10 25 -3 81 -7 125 -10 44
-3 100 -8 125 -10 41 -3 252 -15 360 -20 495 -24 1437 -24 1835 0 33 2 116 6
185 10 69 4 145 8 170 10 25 2 90 6 145 9 55 4 118 9 140 11 22 3 65 7 95 10
51 4 101 9 207 20 854 85 1437 243 1543 418 72 119 -171 268 -590 362 -119 26
-242 50 -365 71 -49 8 -101 17 -115 19 -31 6 -226 32 -300 40 -30 4 -68 8 -85
10 -175 21 -493 49 -680 60 -44 2 -123 7 -175 10 -239 16 -697 28 -1088 29
-184 1 -334 0 -335 0z m418 -228 c130 -7 149 -9 270 -32 446 -84 489 -279 84
-383 -116 -29 -161 -37 -304 -50 -87 -8 -378 -6 -435 2 -19 3 -57 8 -85 12
-27 3 -81 13 -120 22 -38 8 -77 16 -85 18 -94 20 -223 94 -245 142 -36 75 44
151 211 202 39 12 84 24 100 27 16 3 36 7 44 9 8 2 38 7 65 11 28 3 59 8 70
10 11 2 67 7 125 10 58 4 106 7 107 8 2 2 20 1 40 0 21 -2 92 -5 158 -8z"/>
</g>
</svg>
